<?xml version="1.0" encoding="utf-8"?>
<svg viewBox="0 0 24 24" class="eye-icon">
    <g id="eye" class="eye">
        <path d="M12,4.5C7,4.5,2.73,7.61,1,12c1.73,4.39,6,7.5,11,7.5s9.27-3.11,11-7.5C21.27,7.61,17,4.5,12,4.5Z M12,17c-2.76,0-5-2.24-5-5s2.24-5,5-5,5,2.24,5,5S14.76,17,12,17Z"></path>
    </g>
    <g id="eye-off" class="eye-off">
        <path d="M12,6c-1.66,0-3,1.34-3,3c0,0.65,0.26,1.32,0.73,1.77L8.82,14.68c-0.51-0.44-1.21-0.68-1.91-0.68c-1.66,0-3,1.34-3,3c0,1.31,1.04,2.69,2.35,2.95L1,22l1.37-0.5l19.1-7.03L22,12L2.24,5.5L1,6L2.34,7.05C3.96,7.22,5,9,5,10.5c0,0.7,0.2,1.37,0.55,1.96l6.6-2.43C11.63,9.37,12,8.74,12,8c0-1.66,1.34-3,3-3c1.31,0,2.69,1.04,2.95,2.35L17.93,1L12,6Z"></path>
    </g>
</svg>
